<svg width="25" height="25" viewBox="0 0 25 25" fill="none" xmlns="http://www.w3.org/2000/svg">
<rect width="25" height="25" fill="#FFE7E7"/>
<g id="Blush-Email">
<rect width="600" height="2253" transform="translate(-240 -2077)" fill="white"/>
<g id="Footer">
<g id="Container">
<g id="Info">
<g id="socialContainer">
<g id="#href(https://www.instagram.com/blushdesignapp/)">
<path id="Shape" fill-rule="evenodd" clip-rule="evenodd" d="M3.5 8.70325C3.5 5.94225 5.739 3.70325 8.5 3.70325H16.5C19.261 3.70325 21.5 5.94225 21.5 8.70325V16.7032C21.5 19.4642 19.261 21.7032 16.5 21.7032H8.5C5.739 21.7032 3.5 19.4642 3.5 16.7032V8.70325ZM19.5 6.70325C19.5 6.15125 19.052 5.70325 18.5 5.70325C17.948 5.70325 17.5 6.15125 17.5 6.70325C17.5 7.25525 17.948 7.70325 18.5 7.70325C19.052 7.70325 19.5 7.25525 19.5 6.70325ZM12.5 7.70325C15.261 7.70325 17.5 9.94225 17.5 12.7032C17.5 15.4642 15.261 17.7032 12.5 17.7032C9.739 17.7032 7.5 15.4642 7.5 12.7032C7.5 9.94225 9.739 7.70325 12.5 7.70325ZM9.5 12.7032C9.5 11.0464 10.8431 9.70325 12.5 9.70325C14.1569 9.70325 15.5 11.0464 15.5 12.7032C15.5 14.3601 14.1569 15.7032 12.5 15.7032C10.8431 15.7032 9.5 14.3601 9.5 12.7032Z" fill="black"/>
</g>
</g>
</g>
</g>
</g>
</g>
</svg>
