<svg width="25" height="25" viewBox="0 0 25 25" fill="none" xmlns="http://www.w3.org/2000/svg">
<g id="#href(https://dribbble.com/blushdesign)">
<path id="Shape" fill-rule="evenodd" clip-rule="evenodd" d="M12.5 2.70325C7 2.70325 2.5 7.20325 2.5 12.7032C2.5 18.2032 7 22.7032 12.5 22.7032C15.0078 22.7032 17.3008 21.7736 19.0625 20.2345C19.2656 20.1368 19.4336 19.9689 19.5312 19.7657C21.3516 17.9532 22.5 15.4611 22.5 12.7032C22.5 7.20325 18 2.70325 12.5 2.70325ZM13.5312 4.76575C14.8008 4.93372 15.9883 5.41419 17 6.1095C15.7812 7.17981 13.8125 9.38684 13.5625 12.672C13.2227 12.6876 12.8672 12.7032 12.5 12.7032C12.2448 12.7032 11.9979 12.6927 11.758 12.6825C11.6711 12.6788 11.5851 12.6751 11.5 12.672C11.5039 9.922 12.0352 7.922 12.5625 6.6095C13.0703 5.34778 13.4961 4.80872 13.5312 4.76575ZM10.7188 5.8595C10.875 5.47669 11.0352 5.12512 11.1875 4.82825C9.77734 5.06653 8.46484 5.672 7.40625 6.547C7.60938 7.05481 8.3125 9.01575 8.46875 12.297C8.78516 12.3634 9.14062 12.4337 9.5 12.4845C9.52734 9.56653 10.1133 7.35559 10.7188 5.8595ZM18.5 7.45325C19.332 8.40637 19.9414 9.56653 20.25 10.8282C20.0977 10.9611 19.7383 11.2384 18.7812 11.6407C18.0352 11.9572 16.9609 12.2462 15.5938 12.4532C15.9297 9.77356 17.6445 8.13294 18.5 7.45325ZM6.4375 11.7032C6.32031 10.1212 6.08594 9.03137 5.875 8.26575C5.35938 9.03528 4.97656 9.90637 4.75 10.8282C4.90234 10.9611 5.26172 11.2384 6.21875 11.6407C6.25055 11.6547 6.28942 11.6635 6.32868 11.6725L6.32869 11.6725L6.32871 11.6725C6.36662 11.6811 6.40488 11.6898 6.4375 11.7032ZM4.5 13.047C4.77344 13.1993 5.07812 13.3322 5.4375 13.4845C5.73828 13.6095 6.10156 13.7423 6.46875 13.8595C6.42578 15.1954 6.16797 16.3673 5.90625 17.2032C5.08984 16.0079 4.56641 14.5822 4.5 13.047ZM18.375 18.1095C19.6133 16.7618 20.418 14.9884 20.5 13.047C20.2266 13.1993 19.9219 13.3322 19.5625 13.4845C18.6094 13.8868 17.2812 14.2579 15.625 14.4845C15.9688 16.5509 17.5273 17.6564 18.375 18.1095ZM8.46875 14.3595C8.80859 14.422 9.18359 14.4689 9.5625 14.5157C9.74219 16.6525 10.2305 18.34 10.7188 19.547C10.875 19.9298 11.0352 20.2814 11.1875 20.5782C9.79297 20.3439 8.49219 19.7501 7.4375 18.8907C7.76953 18.0822 8.33594 16.4298 8.46875 14.3595ZM11.8333 14.6827C11.7528 14.6789 11.673 14.6752 11.5938 14.672C11.7695 16.4493 12.168 17.8165 12.5625 18.797C13.0703 20.0587 13.4961 20.5978 13.5312 20.6407C14.707 20.4845 15.8203 20.0665 16.7812 19.4532C15.5664 18.6407 13.9844 17.1329 13.625 14.672C13.2656 14.6876 12.8867 14.7032 12.5 14.7032C12.272 14.7032 12.0503 14.6929 11.8333 14.6827Z" fill="black"/>
</g>
</svg>
